<svg xmlns="http://www.w3.org/2000/svg" viewBox="0 0 189.1 22.26"><defs><style>.cls-1{fill:#fff;}</style></defs><g id="Capa_2" data-name="Capa 2"><g id="Capa_1-2" data-name="Capa 1"><path class="cls-1" d="M19.88,0H2.39A2.39,2.39,0,0,0,0,2.39V19.88a2.38,2.38,0,0,0,2.39,2.38H9.21V14.69H6.08V11.13H9.21V8.42c0-3.09,1.83-4.8,4.65-4.8a19,19,0,0,1,2.76.24v3H15.07a1.78,1.78,0,0,0-2,1.93v2.31h3.42l-.55,3.56H13.06v7.57h6.82a2.37,2.37,0,0,0,2.38-2.38V2.39A2.38,2.38,0,0,0,19.88,0Z"/><path class="cls-1" d="M34.3,8.94a2.39,2.39,0,0,0-1.9-.82,3,3,0,0,0-2.9,3.22,3,3,0,0,0,2.83,3.23,2.39,2.39,0,0,0,2.06-1.08l1.84,1.38a4.39,4.39,0,0,1-3.62,1.74,5.08,5.08,0,0,1-5.4-5.27,5.07,5.07,0,0,1,5.4-5.26A4.29,4.29,0,0,1,36,7.55Z"/><path class="cls-1" d="M40.73,9.31a3.61,3.61,0,1,1,0,7.21,3.61,3.61,0,1,1,0-7.21Zm0,5.34a1.61,1.61,0,0,0,1.7-1.74,1.7,1.7,0,1,0-3.4,0A1.61,1.61,0,0,0,40.73,14.65Z"/><path class="cls-1" d="M45.79,9.48h2v.93h0a2.21,2.21,0,0,1,2-1.1c2.15,0,2.54,1.41,2.54,3.25v3.79H50.29V13c0-.79,0-1.81-1.1-1.81s-1.27.87-1.27,1.76v3.42H45.79Z"/><path class="cls-1" d="M58.59,11.17H56.73v2.3c0,.73.08,1.27,1,1.27a1.5,1.5,0,0,0,.86-.2v1.77a4.35,4.35,0,0,1-1.48.21c-1.42,0-2.5-.58-2.5-2.08V11.17H53.25V9.48h1.36v-2h2.12v2h1.86Z"/><path class="cls-1" d="M60.76,6.08a1.23,1.23,0,1,1-1.23,1.23A1.23,1.23,0,0,1,60.76,6.08ZM59.7,9.48h2.12v6.87H59.7Z"/><path class="cls-1" d="M63.35,9.48h2v.93h0a2.22,2.22,0,0,1,2-1.1c2.15,0,2.55,1.41,2.55,3.25v3.79H67.84V13c0-.79,0-1.81-1.1-1.81s-1.27.87-1.27,1.76v3.42H63.35Z"/><path class="cls-1" d="M78.08,16.35h-2v-.93h0a2.22,2.22,0,0,1-2,1.1c-2.15,0-2.55-1.41-2.55-3.25V9.48h2.13v3.36c0,.8,0,1.81,1.1,1.81S76,13.79,76,12.9V9.48h2.12Z"/><path class="cls-1" d="M83.9,15.49h0a2.5,2.5,0,0,1-2.18,1,2.2,2.2,0,0,1-2.45-2.12C79.24,12,82.13,12,83.9,12a1.26,1.26,0,0,0-1.36-1.23,2.29,2.29,0,0,0-1.73.82l-1.13-1.16a4.42,4.42,0,0,1,3-1.1c2.47,0,3.14,1.26,3.14,3.55v3.49H83.9Zm-.53-2.15c-.65,0-2.09.05-2.09,1,0,.51.54.75,1,.75.84,0,1.62-.44,1.62-1.29v-.45Z"/><path class="cls-1" d="M87.18,9.48H89.3v1.1h0a2.1,2.1,0,0,1,2-1.27,2.67,2.67,0,0,1,.71.07v1.94a3.15,3.15,0,0,0-.91-.15c-1.61,0-1.81.94-1.81,2.31v2.87H87.18Z"/><path class="cls-1" d="M101.78,11.7a1.32,1.32,0,0,0-1-.53A1.61,1.61,0,0,0,99,12.91a1.61,1.61,0,0,0,1.7,1.74,1.38,1.38,0,0,0,1-.52l1.4,1.47a3.47,3.47,0,0,1-2.45.92,3.61,3.61,0,1,1,0-7.21,3.47,3.47,0,0,1,2.45.92Z"/><path class="cls-1" d="M107.5,9.31a3.61,3.61,0,1,1-3.82,3.6A3.58,3.58,0,0,1,107.5,9.31Zm0,5.34a1.61,1.61,0,0,0,1.7-1.74,1.7,1.7,0,1,0-3.39,0A1.6,1.6,0,0,0,107.5,14.65Z"/><path class="cls-1" d="M112.57,9.48h2v.93h0a2.22,2.22,0,0,1,2-1.1c2.15,0,2.55,1.41,2.55,3.25v3.79h-2.13V13c0-.79,0-1.81-1.1-1.81s-1.27.87-1.27,1.76v3.42h-2.12Z"/><path class="cls-1" d="M125.23,6.34h6.71v2h-4.51v2h4.17v2h-4.17v3.9h-2.2Z"/><path class="cls-1" d="M137.57,15.49h0a2.5,2.5,0,0,1-2.18,1,2.2,2.2,0,0,1-2.45-2.12c0-2.38,2.88-2.42,4.65-2.42a1.26,1.26,0,0,0-1.35-1.23,2.26,2.26,0,0,0-1.73.82l-1.13-1.16a4.42,4.42,0,0,1,3-1.1c2.47,0,3.14,1.26,3.14,3.55v3.49h-2Zm-.52-2.15c-.65,0-2.09.05-2.09,1,0,.51.53.75,1,.75.84,0,1.61-.44,1.61-1.29v-.45Z"/><path class="cls-1" d="M145.51,11.7a1.31,1.31,0,0,0-1-.53,1.61,1.61,0,0,0-1.7,1.74,1.61,1.61,0,0,0,1.7,1.74,1.36,1.36,0,0,0,1-.52l1.4,1.47a3.45,3.45,0,0,1-2.45.92,3.61,3.61,0,1,1,0-7.21,3.45,3.45,0,0,1,2.45.92Z"/><path class="cls-1" d="M154.18,15.16a3.72,3.72,0,0,1-2.9,1.36,3.61,3.61,0,1,1,0-7.21c2,0,3.22,1.41,3.22,3.6v.67h-4.92a1.58,1.58,0,0,0,1.6,1.33,1.81,1.81,0,0,0,1.51-.84Zm-1.8-3a1.27,1.27,0,0,0-1.3-1.31,1.42,1.42,0,0,0-1.5,1.31Z"/><path class="cls-1" d="M156,5.66h2.12v4.55h0a2.57,2.57,0,0,1,2.18-.9c2,0,3.14,1.75,3.14,3.66a3.3,3.3,0,0,1-3.38,3.55A2.66,2.66,0,0,1,158,15.45h0v.9H156Zm3.65,9a1.6,1.6,0,0,0,1.69-1.74,1.7,1.7,0,1,0-3.39,0A1.61,1.61,0,0,0,159.64,14.65Z"/><path class="cls-1" d="M168.27,9.31a3.61,3.61,0,1,1-3.82,3.6A3.58,3.58,0,0,1,168.27,9.31Zm0,5.34A1.6,1.6,0,0,0,170,12.91a1.7,1.7,0,1,0-3.39,0A1.6,1.6,0,0,0,168.27,14.65Z"/><path class="cls-1" d="M176.89,9.31a3.61,3.61,0,1,1-3.82,3.6A3.58,3.58,0,0,1,176.89,9.31Zm0,5.34a1.61,1.61,0,0,0,1.7-1.74,1.7,1.7,0,1,0-3.39,0A1.6,1.6,0,0,0,176.89,14.65Z"/><path class="cls-1" d="M182,5.66h2.12v6.53l2.35-2.71H189l-2.73,3.09,2.8,3.78h-2.67l-2.32-3.48h0v3.48H182Z"/></g></g></svg>